HIERARCHY
ROOT Hips
{
    OFFSET   0.000000   0.000000   0.000000
    CHANNELS 6 Xposition Yposition Zposition Zrotation Xrotation Yrotation
    JOINT Chest
    {
        OFFSET   0.000000   8.007230   0.000000
        CHANNELS 3 Zrotation Xrotation Yrotation
        JOINT Chest2
        {
            OFFSET   0.000000  22.077100   0.000000
            CHANNELS 3 Zrotation Xrotation Yrotation
            JOINT Neck
            {
                OFFSET   0.000000  23.254800  -0.000021
                CHANNELS 3 Zrotation Xrotation Yrotation
                JOINT Head
                {
                    OFFSET   0.000000  14.370000   1.956610
                    CHANNELS 3 Zrotation Xrotation Yrotation
                    End Site
                    {
                        OFFSET   0.000000  19.566000   0.000000
                    }
                }
            }
            JOINT LeftCollar
            {
                OFFSET   3.911900  19.017000  -0.467063
                CHANNELS 3 Zrotation Xrotation Yrotation
                JOINT LeftShoulder
                {
                    OFFSET  10.383700   0.000000   0.000000
                    CHANNELS 3 Zrotation Xrotation Yrotation
                    JOINT LeftElbow
                    {
                        OFFSET  26.662100   0.001529   0.000325
                        CHANNELS 3 Zrotation Xrotation Yrotation
                        JOINT LeftWrist
                        {
                            OFFSET  28.869000  -0.000011  -0.000096
                            CHANNELS 3 Zrotation Xrotation Yrotation
                            JOINT LeftFinger0
                            {
                                OFFSET   2.044650  -2.323460   3.252850
                                CHANNELS 3 Zrotation Xrotation Yrotation
                                JOINT LeftFinger01
                                {
                                    OFFSET   3.088130   0.000000   0.000000
                                    CHANNELS 3 Zrotation Xrotation Yrotation
                                    JOINT LeftFinger02
                                    {
                                        OFFSET   2.639460   0.000000   0.000000
                                        CHANNELS 3 Zrotation Xrotation Yrotation
                                        End Site
                                        {
                                            OFFSET   2.582190   0.000000   0.000000
                                        }
                                    }
                                }
                            }
                            JOINT LeftFinger1
                            {
                                OFFSET   8.364480   0.000000   3.252850
                                CHANNELS 3 Zrotation Xrotation Yrotation
                                JOINT LeftFinger11
                                {
                                    OFFSET   4.646930   0.000000   0.000000
                                    CHANNELS 3 Zrotation Xrotation Yrotation
                                    JOINT LeftFinger12
                                    {
                                        OFFSET   2.323460   0.000000   0.000000
                                        CHANNELS 3 Zrotation Xrotation Yrotation
                                        End Site
                                        {
                                            OFFSET   2.273050   0.000000   0.000000
                                        }
                                    }
                                }
                            }
                            JOINT LeftFinger2
                            {
                                OFFSET   8.364480   0.000016   1.078090
                                CHANNELS 3 Zrotation Xrotation Yrotation
                                JOINT LeftFinger21
                                {
                                    OFFSET   5.111620   0.000000   0.000000
                                    CHANNELS 3 Zrotation Xrotation Yrotation
                                    JOINT LeftFinger22
                                    {
                                        OFFSET   2.788160   0.000017   0.000000
                                        CHANNELS 3 Zrotation Xrotation Yrotation
                                        End Site
                                        {
                                            OFFSET   2.727660   0.000000   0.000000
                                        }
                                    }
                                }
                            }
                            JOINT LeftFinger3
                            {
                                OFFSET   7.899780   0.000015  -1.078090
                                CHANNELS 3 Zrotation Xrotation Yrotation
                                JOINT LeftFinger31
                                {
                                    OFFSET   4.646920   0.000000   0.000000
                                    CHANNELS 3 Zrotation Xrotation Yrotation
                                    JOINT LeftFinger32
                                    {
                                        OFFSET   2.323470   0.000000   0.000000
                                        CHANNELS 3 Zrotation Xrotation Yrotation
                                        End Site
                                        {
                                            OFFSET   2.273050   0.000000   0.000000
                                        }
                                    }
                                }
                            }
                            JOINT LeftFinger4
                            {
                                OFFSET   7.435090   0.000000  -3.252850
                                CHANNELS 3 Zrotation Xrotation Yrotation
                                JOINT LeftFinger41
                                {
                                    OFFSET   3.717550   0.000000   0.000000
                                    CHANNELS 3 Zrotation Xrotation Yrotation
                                    JOINT LeftFinger42
                                    {
                                        OFFSET   1.858760   0.000000   0.000000
                                        CHANNELS 3 Zrotation Xrotation Yrotation
                                        End Site
                                        {
                                            OFFSET   1.818440   0.000000   0.000000
                                        }
                                    }
                                }
                            }
                        }
                    }
                }
            }
            JOINT RightCollar
            {
                OFFSET  -3.911900  19.017000  -0.467062
                CHANNELS 3 Zrotation Xrotation Yrotation
                JOINT RightShoulder
                {
                    OFFSET -10.383700   0.000015   0.000000
                    CHANNELS 3 Zrotation Xrotation Yrotation
                    JOINT RightElbow
                    {
                        OFFSET -26.662100   0.001341   0.000385
                        CHANNELS 3 Zrotation Xrotation Yrotation
                        JOINT RightWrist
                        {
                            OFFSET -28.869000   0.000025  -0.000080
                            CHANNELS 3 Zrotation Xrotation Yrotation
                            JOINT RightFinger0
                            {
                                OFFSET  -2.044650  -2.323490   3.252850
                                CHANNELS 3 Zrotation Xrotation Yrotation
                                JOINT RightFinger01
                                {
                                    OFFSET  -3.088130   0.000000   0.000000
                                    CHANNELS 3 Zrotation Xrotation Yrotation
                                    JOINT RightFinger02
                                    {
                                        OFFSET  -2.639460   0.000000   0.000000
                                        CHANNELS 3 Zrotation Xrotation Yrotation
                                        End Site
                                        {
                                            OFFSET  -2.582190   0.000000   0.000000
                                        }
                                    }
                                }
                            }
                            JOINT RightFinger1
                            {
                                OFFSET  -8.364480   0.000000   3.252850
                                CHANNELS 3 Zrotation Xrotation Yrotation
                                JOINT RightFinger11
                                {
                                    OFFSET  -4.646930   0.000000   0.000000
                                    CHANNELS 3 Zrotation Xrotation Yrotation
                                    JOINT RightFinger12
                                    {
                                        OFFSET  -2.323470   0.000000   0.000000
                                        CHANNELS 3 Zrotation Xrotation Yrotation
                                        End Site
                                        {
                                            OFFSET  -2.273050   0.000000   0.000000
                                        }
                                    }
                                }
                            }
                            JOINT RightFinger2
                            {
                                OFFSET  -8.364480   0.000000   1.078090
                                CHANNELS 3 Zrotation Xrotation Yrotation
                                JOINT RightFinger21
                                {
                                    OFFSET  -5.111610   0.000000   0.000000
                                    CHANNELS 3 Zrotation Xrotation Yrotation
                                    JOINT RightFinger22
                                    {
                                        OFFSET  -2.788160   0.000000   0.000000
                                        CHANNELS 3 Zrotation Xrotation Yrotation
                                        End Site
                                        {
                                            OFFSET  -2.727660   0.000000   0.000000
                                        }
                                    }
                                }
                            }
                            JOINT RightFinger3
                            {
                                OFFSET  -7.899780   0.000000  -1.078090
                                CHANNELS 3 Zrotation Xrotation Yrotation
                                JOINT RightFinger31
                                {
                                    OFFSET  -4.646920   0.000000   0.000000
                                    CHANNELS 3 Zrotation Xrotation Yrotation
                                    JOINT RightFinger32
                                    {
                                        OFFSET  -2.323470   0.000000   0.000000
                                        CHANNELS 3 Zrotation Xrotation Yrotation
                                        End Site
                                        {
                                            OFFSET  -2.273050   0.000000   0.000000
                                        }
                                    }
                                }
                            }
                            JOINT RightFinger4
                            {
                                OFFSET  -7.435090   0.000000  -3.252850
                                CHANNELS 3 Zrotation Xrotation Yrotation
                                JOINT RightFinger41
                                {
                                    OFFSET  -3.717550   0.000000   0.000000
                                    CHANNELS 3 Zrotation Xrotation Yrotation
                                    JOINT RightFinger42
                                    {
                                        OFFSET  -1.858770   0.000000   0.000000
                                        CHANNELS 3 Zrotation Xrotation Yrotation
                                        End Site
                                        {
                                            OFFSET  -1.818440   0.000000   0.000000
                                        }
                                    }
                                }
                            }
                        }
                    }
                }
            }
        }
    }
    JOINT LeftHip
    {
        OFFSET   9.783010   0.000000   0.000000
        CHANNELS 3 Zrotation Xrotation Yrotation
        JOINT LeftKnee
        {
            OFFSET   0.000070 -41.789100   0.000028
            CHANNELS 3 Zrotation Xrotation Yrotation
            JOINT LeftAnkle
            {
                OFFSET   0.000087 -41.133200  -0.000100
                CHANNELS 3 Zrotation Xrotation Yrotation
                JOINT LeftToe
                {
                    OFFSET   0.000000  -6.358960  14.674500
                    CHANNELS 3 Zrotation Xrotation Yrotation
                    End Site
                    {
                        OFFSET   0.000000   0.000000   3.913200
                    }
                }
            }
        }
    }
    JOINT RightHip
    {
        OFFSET  -9.783020   0.000000   0.000000
        CHANNELS 3 Zrotation Xrotation Yrotation
        JOINT RightKnee
        {
            OFFSET   0.000044 -41.789100  -0.000870
            CHANNELS 3 Zrotation Xrotation Yrotation
            JOINT RightAnkle
            {
                OFFSET  -0.000090 -41.133200  -0.000245
                CHANNELS 3 Zrotation Xrotation Yrotation
                JOINT RightToe
                {
                    OFFSET   0.000000  -6.358960  14.674500
                    CHANNELS 3 Zrotation Xrotation Yrotation
                    End Site
                    {
                        OFFSET   0.000000   0.000000   3.913200
                    }
                }
            }
        }
    }
}
MOTION
Frames: 4
Frame Time:   0.016667
  2.816120  89.492800  -1.812060  -1.301680  -2.307810   4.557990   0.593872   3.173680  -0.542282   1.220660   6.341380  -1.120110  -1.709700   1.187580   0.031362  -2.812440   2.401770   5.491670  -3.344840   1.189960   8.411140 -79.893100   3.339670   0.061016   0.033995   5.710320 -16.910500   6.880710  -3.858780  -1.537960  39.362800  32.466000 -51.997900 -32.701200  -0.000369  -0.000213 -11.350700  -0.000231   0.000266 -26.415700  -1.507900   3.030810 -21.645400   0.000724   0.009563 -15.151800  -0.001176   0.006509 -28.223600  -3.977760   7.364360 -35.926700  -0.001217   0.004218 -23.927200  -0.002832   0.001886 -24.562300  -3.497650   7.603120 -24.794800   0.000662   0.007754 -16.513300   0.006877   0.001694 -25.003200  -3.788580   8.063850 -37.905500  -0.009150   0.006280 -25.245100  -0.000600   0.002850   6.667680   4.488310   6.883340  68.440200  -3.113200   0.050640   3.486100  -2.151310  16.624900 -10.372300   0.305849   4.226880 -53.700300  49.661100  98.360400  22.136900   0.005631  -0.005106   6.068480   0.002333  -0.006451  26.543400   1.833580   3.664350  21.765600  -0.000937  -0.003293  15.236000  -0.000254  -0.001497  27.240200  -0.737521  -1.432510  28.043500   0.000214  -0.001177  18.677000  -0.000975  -0.000366  27.549400  -0.810515  -1.553500  29.501400   0.000699   0.001015  19.648000  -0.001155  -0.007186  30.642000  -0.962963  -1.625780  45.983700  -0.009516  -0.005380  30.625100  -0.007278  -0.010638   2.585010   3.182740  -0.238409  -0.091184   0.063022   8.605190  -2.814530  -1.166800  -1.287040  -0.000000   0.000000  -0.000000  -1.521980   2.839230  -4.525920  -0.776600   4.233310 -16.403000   2.672410  -3.185410   1.751840   0.000000   0.000000  -0.000000
  2.819460  89.492800  -1.812970  -1.301250  -2.320860   4.556840   0.593721   3.176480  -0.537908   1.220010   6.347040  -1.111340  -1.692040   1.234080   0.031441  -2.783610   2.496070   5.504090  -3.350680   1.193510   8.421120 -79.894200   3.320760   0.060921   0.030092   5.744290 -16.937600   6.879660  -3.866760  -1.550310  39.351700  32.455700 -52.008200 -32.710600  -0.000371  -0.000214 -11.355400  -0.000239   0.000267 -26.435600  -1.510650   3.034480 -21.661800   0.000717   0.009580 -15.163300  -0.001178   0.006515 -28.226700  -3.982620   7.372270 -35.967800  -0.001237   0.004251 -23.954600  -0.002828   0.001900 -24.573700  -3.503110   7.610820 -24.806900   0.000659   0.007797 -16.521300   0.006877   0.001687 -25.014500  -3.793370   8.069810 -37.923200  -0.009155   0.006331 -25.256900  -0.000594   0.002846   6.681060   4.482980   6.916100  68.401700  -3.147790   0.069332   3.457130  -2.218890  16.787100 -10.321700   0.661707   4.317740 -53.573800  49.673200  98.358900  22.075800   0.005629  -0.005091   6.037940   0.002320  -0.006451  26.521500   1.895250   3.790900  21.750900  -0.000938  -0.003292  15.225700  -0.000260  -0.001490  27.229300  -0.692701  -1.346590  27.990400   0.000212  -0.001177  18.641600  -0.000975  -0.000358  27.537400  -0.765300  -1.468100  29.434700   0.000697   0.001019  19.603600  -0.001156  -0.007186  30.598500  -0.925945  -1.567340  45.916900  -0.009511  -0.005379  30.580500  -0.007273  -0.010638   2.584730   3.183740  -0.232728  -0.091097   0.090929   8.608080  -2.813540  -1.182690  -1.298160  -0.000000   0.000000   0.000000  -1.522120   2.844460  -4.514540  -0.770190   4.252790 -16.413600   2.672760  -3.194180   1.752960  -0.000000   0.000000   0.000000
  2.825380  89.492700  -1.815410  -1.303040  -2.343560   4.548580   0.593797   3.184130  -0.529712   1.219940   6.362430  -1.095060  -1.657700   1.306980   0.031582  -2.727430   2.643930   5.549990  -3.363300   1.199270   8.447290 -79.902000   3.301860   0.060769   0.019555   5.795150 -16.987600   6.878120  -3.874730  -1.569810  39.334900  32.438600 -52.025400 -32.723700  -0.000384  -0.000218 -11.361900  -0.000256   0.000273 -26.465600  -1.515690   3.041320 -21.686600   0.000704   0.009623 -15.180600  -0.001183   0.006530 -28.231100  -3.994070   7.391850 -36.031800  -0.001273   0.004322 -23.997200  -0.002818   0.001932 -24.591100  -3.515020   7.630280 -24.825700   0.000653   0.007891 -16.533800   0.006875   0.001671 -25.033600  -3.801770   8.080460 -37.953400  -0.009168   0.006441 -25.276900  -0.000580   0.002834   6.704670   4.467860   6.981080  68.343800  -3.277850   0.102453   3.410880  -2.376440  17.067200 -10.230300   1.276130   4.502020 -53.408400  49.688900  98.327700  22.014800   0.005621  -0.005046   6.007410   0.002297  -0.006450  26.474800   1.980190   3.968210  21.717500  -0.000943  -0.003289  15.202300  -0.000271  -0.001474  27.203100  -0.647877  -1.260670  27.873300   0.000206  -0.001174  18.563600  -0.000977  -0.000335  27.511500  -0.720080  -1.382690  29.301600   0.000690   0.001028  19.514900  -0.001162  -0.007186  30.513900  -0.888924  -1.508900  45.788600  -0.009500  -0.005374  30.495100  -0.007262  -0.010636   2.584640   3.190710  -0.226826  -0.091033   0.118833   8.620560  -2.809780  -1.198570  -1.309280  -0.000000   0.000000   0.000000  -1.522300   2.850660  -4.498840  -0.760707   4.285850 -16.424500   2.673610  -3.206990   1.760760   0.000000   0.000000  -0.000000
  2.831050  89.492600  -1.820560  -1.310140  -2.362440   4.524590   0.597589   3.196280  -0.520967   1.227330   6.386780  -1.077930  -1.626710   1.356460   0.031749  -2.677050   2.744050   5.671310  -3.379480   1.201340   8.488260 -79.925900   3.302090   0.060642   0.001433   5.822930 -17.036300   6.860270  -3.871760  -1.582600  39.325900  32.421800 -52.043000 -32.728900  -0.000418  -0.000234 -11.364500  -0.000277   0.000293 -26.486100  -1.521830   3.048930 -21.703600   0.000686   0.009688 -15.192500  -0.001192   0.006555 -28.233600  -4.011640   7.423310 -36.082100  -0.001321   0.004424 -24.030700  -0.002804   0.001978 -24.604400  -3.531970   7.662140 -24.840600   0.000642   0.008022 -16.543800   0.006873   0.001650 -25.054100  -3.810210   8.091120 -37.985300  -0.009191   0.006594 -25.298200  -0.000559   0.002815   6.726630   4.441060   7.057180  68.311600  -3.516630   0.130154   3.392050  -2.612290  17.295200 -10.154800   1.857950   4.743040 -52.982200  49.521900  97.928200  22.075700   0.005592  -0.004966   6.037850   0.002275  -0.006440  26.413500   2.011750   4.044560  21.669400  -0.000954  -0.003276  15.168600  -0.000285  -0.001447  27.164100  -0.651711  -1.269870  27.708400   0.000195  -0.001167  18.453800  -0.000982  -0.000297  27.477900  -0.728013  -1.399540  29.139500   0.000679   0.001041  19.406900  -0.001174  -0.007187  30.417400  -0.899538  -1.531530  45.644400  -0.009483  -0.005360  30.399200  -0.007247  -0.010632   2.589130   3.237510  -0.226578  -0.096190   0.061139   8.646800  -2.799760  -1.177330  -1.308800  -0.000000   0.000000  -0.000000  -1.518630   2.851310  -4.494290  -0.759716   4.317790 -16.422300   2.671100  -3.213490   1.780820   0.000000   0.000000  -0.000000
